<svg width="24" height="24" viewBox="0 0 24 24" fill="none" xmlns="http://www.w3.org/2000/svg">
<g clip-path="url(#clip0_5989_97116)">
<path d="M19.2 0H4.8C2.14903 0 0 2.14903 0 4.8V19.2C0 21.851 2.14903 24 4.8 24H19.2C21.851 24 24 21.851 24 19.2V4.8C24 2.14903 21.851 0 19.2 0Z" fill="white"/>
<path d="M19.2 23.399H4.80844C3.68584 23.399 2.60922 22.953 1.81541 22.1592C1.02161 21.3654 0.575641 20.2888 0.575641 19.1661V4.77461C0.575641 3.652 1.02161 2.57536 1.81541 1.78155C2.60922 0.987749 3.68584 0.54181 4.80844 0.54181H19.2C20.3226 0.54181 21.3993 0.987749 22.1931 1.78155C22.9869 2.57536 23.4328 3.652 23.4328 4.77461V19.1661C23.4328 20.2888 22.9869 21.3654 22.1931 22.1592C21.3993 22.953 20.3226 23.399 19.2 23.399Z" fill="#EE86A7"/>
<path d="M11.8518 3.00528H13.1979V5.65502C13.3333 5.42645 13.4688 5.20634 13.6127 4.9947L14.9672 3.00528H16.6603L14.6709 5.54496L16.7535 8.99047H15.1788L13.7058 6.39152L13.1979 7.02644V8.99047H11.8518V3.00528Z" fill="white"/>
<path d="M10.455 4.12275V2.99683H7.88148V4.12275H8.491V7.87302H7.88148V8.99894H10.455V7.87302H9.8455V4.12275H10.455Z" fill="white"/>
<path d="M11.5979 16.1608C11.5979 19.0138 10.438 21.0032 8.08461 21.0032C5.73117 21.0032 4.63066 18.8444 4.61373 16.2201C4.5968 13.5958 5.73964 11.4032 8.14388 11.4032C10.5481 11.4032 11.5979 13.6127 11.5979 16.1608ZM6.78092 16.2201C6.78092 18.345 7.29735 19.3608 8.12698 19.3608C8.95661 19.3608 9.43066 18.3026 9.43066 16.1862C9.43066 14.0698 8.98199 13.0455 8.11003 13.0455C7.23807 13.0455 6.78092 14.0444 6.78092 16.2201Z" fill="white"/>
<path d="M18.455 13.1048C18.1732 13.085 17.8903 13.085 17.6084 13.1048C15.6867 13.2656 14.8233 14.2476 14.5863 15.3228H14.6709C14.933 15.0734 15.2429 14.8795 15.5819 14.753C15.9209 14.6264 16.2819 14.5697 16.6434 14.5863C17.0363 14.5781 17.4266 14.6521 17.7893 14.8037C18.1519 14.9553 18.4789 15.181 18.7491 15.4664C19.0193 15.7518 19.227 16.0905 19.3585 16.4609C19.4901 16.8312 19.5428 17.225 19.5132 17.6169C19.5212 18.0638 19.4392 18.5078 19.2718 18.9223C19.1045 19.3367 18.8554 19.7132 18.5393 20.0293C18.2233 20.3453 17.8468 20.5945 17.4323 20.7618C17.0178 20.9291 16.5739 21.0112 16.127 21.0032C13.6465 21.0032 12.4275 19.1577 12.4275 16.9482C12.4082 16.1773 12.5487 15.4108 12.8401 14.6969C13.1315 13.983 13.5674 13.3372 14.1206 12.8C15.1126 11.9383 16.3792 11.4581 17.6931 11.4455C17.9747 11.4186 18.2581 11.4186 18.5397 11.4455L18.455 13.1048ZM17.2698 17.7609C17.2962 17.5623 17.2801 17.3604 17.2226 17.1686C17.1651 16.9767 17.0675 16.7993 16.9362 16.648C16.8049 16.4967 16.643 16.3751 16.4612 16.2911C16.2794 16.2071 16.0817 16.1627 15.8815 16.1609C15.6103 16.1625 15.3455 16.2436 15.1198 16.394C14.8941 16.5445 14.7175 16.7577 14.6116 17.0074C14.5323 17.1825 14.4974 17.3744 14.51 17.5661C14.5524 18.5482 15.0264 19.437 16.0254 19.437C16.7873 19.437 17.2698 18.7344 17.2698 17.7947" fill="white"/>
</g>
<defs>
<clipPath id="clip0_5989_97116">
<rect width="24" height="24" fill="white"/>
</clipPath>
</defs>
</svg>
