<svg width="24" height="24" viewBox="0 0 24 24" fill="none" xmlns="http://www.w3.org/2000/svg">
<g clip-path="url(#clip0_5989_97126)">
<path d="M19.2 0H4.8C2.14903 0 0 2.14903 0 4.8V19.2C0 21.851 2.14903 24 4.8 24H19.2C21.851 24 24 21.851 24 19.2V4.8C24 2.14903 21.851 0 19.2 0Z" fill="white"/>
<path d="M19.2 23.3989H4.80844C3.68584 23.3989 2.60922 22.953 1.81541 22.1592C1.02161 21.3654 0.575641 20.2887 0.575641 19.1661V4.83386C0.575641 3.71125 1.02161 2.63463 1.81541 1.84083C2.60922 1.04702 3.68584 0.601058 4.80844 0.601058H19.2C20.3226 0.601058 21.3993 1.04702 22.1931 1.84083C22.9869 2.63463 23.4328 3.71125 23.4328 4.83386V19.2254C23.4328 20.348 22.9869 21.4246 22.1931 22.2184C21.3993 23.0122 20.3226 23.4582 19.2 23.4582" fill="#EE86A7"/>
<path d="M11.8518 2.99684H13.1979V5.68042C13.3333 5.45185 13.4688 5.2402 13.6127 5.02855L14.9672 3.03068H16.6603L14.6709 5.57037L16.7535 9.01587H15.1788L13.7058 6.4254L13.1979 7.05185V9.01587H11.8518V2.99684Z" fill="white"/>
<path d="M10.455 4.12275V2.99683H7.88148V4.12275H8.491V7.87302H7.88148V8.99894H10.455V7.87302H9.8455V4.12275H10.455Z" fill="white"/>
<path d="M7.51746 13.4857H7.4836L5.71429 14.3238L5.35873 12.6984L7.83069 11.5556H9.61693V20.8423H7.51746V13.4857Z" fill="white"/>
<path d="M15.2974 13.4857H15.272L13.5026 14.3238L13.1386 12.6984L15.6106 11.5556H17.3968V20.8423H15.2974V13.4857Z" fill="white"/>
</g>
<defs>
<clipPath id="clip0_5989_97126">
<rect width="24" height="24" fill="white"/>
</clipPath>
</defs>
</svg>
