<svg width="24" height="24" viewBox="0 0 24 24" fill="none" xmlns="http://www.w3.org/2000/svg">
<g clip-path="url(#clip0_5989_97085)">
<path d="M19.2 0H4.8C2.14903 0 0 2.14903 0 4.8V19.2C0 21.851 2.14903 24 4.8 24H19.2C21.851 24 24 21.851 24 19.2V4.8C24 2.14903 21.851 0 19.2 0Z" fill="white"/>
<path d="M19.1915 23.3989H4.8C3.67739 23.3989 2.60077 22.953 1.80697 22.1592C1.01316 21.3654 0.567198 20.2887 0.567198 19.1661V4.7746C0.567198 3.65199 1.01316 2.57537 1.80697 1.78156C2.60077 0.987759 3.67739 0.541795 4.8 0.541795H19.1915C20.3141 0.541795 21.3908 0.987759 22.1846 1.78156C22.9784 2.57537 23.4243 3.65199 23.4243 4.7746V19.1661C23.4243 20.2887 22.9784 21.3654 22.1846 22.1592C21.3908 22.953 20.3141 23.3989 19.1915 23.3989Z" fill="#F18C43"/>
<path d="M11.2846 5.94286C11.2846 7.91534 10.1079 9.10054 8.3386 9.10054C7.94604 9.10464 7.557 9.02618 7.1967 8.8703C6.83639 8.71441 6.51284 8.48457 6.24705 8.19564C5.98127 7.90671 5.77916 7.56516 5.65383 7.19312C5.5285 6.82107 5.48275 6.42682 5.51954 6.03597C5.48789 5.63404 5.54004 5.22993 5.67269 4.84921C5.80534 4.46849 6.0156 4.11947 6.29015 3.82423C6.5647 3.52899 6.89759 3.29396 7.26769 3.13405C7.63779 2.97414 8.03702 2.89282 8.44018 2.89523C8.83368 2.88644 9.22459 2.9609 9.58731 3.11372C9.95003 3.26654 10.2764 3.4943 10.5449 3.78204C10.8135 4.06979 11.0182 4.41103 11.1457 4.78341C11.2732 5.15579 11.3205 5.5509 11.2846 5.94286ZM6.95023 6.01057C6.95023 7.19576 7.50899 8.02539 8.41481 8.02539C9.32063 8.02539 9.85393 7.17883 9.85393 5.98518C9.85393 4.79152 9.34603 3.97038 8.41481 3.97038C7.4836 3.97038 6.95023 4.81692 6.95023 6.01057Z" fill="white"/>
<path d="M16.982 6.70476C16.982 5.98518 16.9312 5.11322 16.9312 4.24126C16.7365 5.00317 16.4825 5.85821 16.2539 6.56085L15.5259 8.90582H14.4677L13.8243 6.5947C13.6296 5.87512 13.4349 5.02856 13.2826 4.24126C13.2826 5.08782 13.2148 5.97673 13.181 6.7217L13.0624 8.99893H11.8095L12.1905 3.00529H14.0021L14.5862 5.00319C14.781 5.69737 14.9587 6.45079 15.0942 7.15343C15.255 6.45925 15.4582 5.6635 15.6699 4.99471L16.2963 3.00529H18.0825L18.4042 8.99893H17.0836L16.982 6.70476Z" fill="white"/>
<path d="M11.6233 16.1609C11.6233 19.0138 10.4635 21.0032 8.10159 21.0032C5.73968 21.0032 4.64759 18.8445 4.63066 16.2201C4.61373 13.5958 5.76503 11.4032 8.1608 11.4032C10.5566 11.4032 11.6233 13.6212 11.6233 16.1609ZM6.80632 16.2201C6.80632 18.345 7.32274 19.3609 8.14391 19.3609C8.96507 19.3609 9.44759 18.3027 9.44759 16.1862C9.44759 14.0698 9.00739 13.0455 8.13543 13.0455C7.26347 13.0455 6.80632 14.0445 6.80632 16.2201Z" fill="white"/>
<path d="M14.0444 16.0593C13.6506 15.8806 13.3153 15.5943 13.0771 15.2333C12.839 14.8723 12.7077 14.4514 12.6984 14.0191C12.6984 12.4445 14.1122 11.4032 15.9746 11.4032C18.1418 11.4032 19.0476 12.6561 19.0476 13.7905C19.041 14.2257 18.9089 14.6497 18.6671 15.0116C18.4253 15.3735 18.0841 15.6579 17.6846 15.8307V15.873C18.1712 16.0332 18.5958 16.341 18.8993 16.7537C19.2028 17.1664 19.37 17.6635 19.3778 18.1757C19.3778 19.8688 17.964 21.0032 15.8053 21.0032C13.4434 21.0032 12.3598 19.6741 12.3598 18.4127C12.3648 17.8968 12.5306 17.3952 12.8341 16.9779C13.1375 16.5607 13.5636 16.2484 14.0529 16.0847L14.0444 16.0593ZM17.1852 18.345C17.1852 17.4984 16.5756 17.0413 15.7291 16.8212C15.4109 16.8857 15.1249 17.0584 14.9196 17.31C14.7144 17.5615 14.6026 17.8764 14.6032 18.2011C14.5985 18.3743 14.6292 18.5466 14.6936 18.7075C14.758 18.8684 14.8546 19.0143 14.9775 19.1364C15.1005 19.2586 15.2471 19.3543 15.4084 19.4176C15.5696 19.481 15.7422 19.5106 15.9153 19.5048C16.0761 19.5175 16.2378 19.4971 16.3903 19.4448C16.5428 19.3925 16.683 19.3094 16.8021 19.2006C16.9212 19.0918 17.0166 18.9598 17.0825 18.8126C17.1484 18.6654 17.1834 18.5062 17.1852 18.345ZM14.7556 13.9429C14.7556 14.5778 15.3143 14.9757 16.0592 15.2042C16.3209 15.134 16.5533 14.9819 16.7223 14.7702C16.8914 14.5585 16.9883 14.2982 16.9989 14.0275C17.0113 13.8753 16.9909 13.7223 16.939 13.5787C16.8872 13.4351 16.8051 13.3044 16.6984 13.1952C16.5917 13.0861 16.4627 13.0011 16.3203 12.9461C16.1779 12.891 16.0254 12.8672 15.873 12.8762C15.7276 12.8641 15.5812 12.883 15.4436 12.9317C15.3059 12.9803 15.1802 13.0576 15.0746 13.1584C14.969 13.2592 14.8859 13.3812 14.831 13.5164C14.776 13.6516 14.7503 13.797 14.7556 13.9429Z" fill="white"/>
</g>
<defs>
<clipPath id="clip0_5989_97085">
<rect width="24" height="24" fill="white"/>
</clipPath>
</defs>
</svg>
