<svg width="24" height="24" viewBox="0 0 24 24" fill="none" xmlns="http://www.w3.org/2000/svg">
<g clip-path="url(#clip0_5989_97143)">
<path d="M19.2 0H4.8C2.14903 0 0 2.14903 0 4.8V19.2C0 21.851 2.14903 24 4.8 24H19.2C21.851 24 24 21.851 24 19.2V4.8C24 2.14903 21.851 0 19.2 0Z" fill="white"/>
<path d="M19.2 23.3989H4.80846C3.68585 23.3989 2.60923 22.953 1.81542 22.1592C1.02162 21.3654 0.575653 20.2887 0.575653 19.1661V4.7746C0.575653 3.65199 1.02162 2.57537 1.81542 1.78156C2.60923 0.987759 3.68585 0.541795 4.80846 0.541795H19.2C20.3226 0.541795 21.3992 0.987759 22.193 1.78156C22.9868 2.57537 23.4328 3.65199 23.4328 4.7746V19.1661C23.4328 20.2887 22.9868 21.3654 22.193 22.1592C21.3992 22.953 20.3226 23.3989 19.2 23.3989Z" fill="#AE0179"/>
<path d="M7.84762 4.13968H6.23069V2.99683H10.836V4.13968H9.20212V8.99894H7.84762V4.13968Z" fill="white"/>
<path d="M16.4995 6.70476C16.4995 5.98518 16.4487 5.11323 16.4487 4.24127C16.254 5.00318 16.0085 5.8582 15.7714 6.56084L15.0434 8.90582H13.9852L13.3418 6.58624C13.1471 5.87513 12.9524 5.02011 12.8 4.24127C12.8 5.04551 12.7323 5.93439 12.6984 6.72169L12.5884 8.99894H11.2931L11.6825 3.00529H13.4942L14.0783 5.00317C14.2815 5.69735 14.4508 6.44232 14.5862 7.15343H14.6286C14.7894 6.45079 14.9926 5.6635 15.1958 4.99471L15.8222 3.00529H17.6085L17.9301 8.99894H16.6095L16.4995 6.70476Z" fill="white"/>
<path d="M11.6064 16.1609C11.6064 19.0138 10.4466 21.0032 8.09311 21.0032C5.73967 21.0032 4.6307 18.8444 4.62223 16.2116C4.61377 13.5788 5.74814 11.4032 8.1439 11.4032C10.5397 11.4032 11.6064 13.6127 11.6064 16.1609ZM6.78943 16.2116C6.78943 18.345 7.3058 19.3609 8.13543 19.3609C8.96506 19.3609 9.43069 18.3027 9.43069 16.1862C9.43069 14.0698 8.99049 13.0455 8.11853 13.0455C7.24658 13.0455 6.78943 14.0444 6.78943 16.2116Z" fill="white"/>
<path d="M12.9185 18.7175C13.5853 19.0689 14.3238 19.2629 15.0772 19.2847C16.2032 19.2847 16.7704 18.7429 16.7704 18.0571C16.7704 17.1259 15.8561 16.7111 14.891 16.7111H14.0445V15.1534H14.891C15.6191 15.1534 16.5334 14.8741 16.5334 14.0868C16.5334 13.528 16.0931 13.1132 15.1619 13.1132C14.4824 13.1385 13.8196 13.3304 13.2317 13.672L12.7915 12.0974C13.6724 11.6226 14.6609 11.3835 15.6614 11.4032C17.6339 11.4032 18.7344 12.4444 18.7344 13.7143C18.7352 14.2119 18.5687 14.6953 18.2616 15.0868C17.9545 15.4784 17.5247 15.7553 17.0413 15.873C17.5957 15.9447 18.1054 16.2149 18.4759 16.6336C18.8464 17.0524 19.0525 17.5912 19.0561 18.1503C19.0561 19.7757 17.6169 20.9778 15.255 20.9778C14.298 21.0018 13.3508 20.7803 12.5037 20.3344L12.9185 18.7175Z" fill="white"/>
</g>
<defs>
<clipPath id="clip0_5989_97143">
<rect width="24" height="24" fill="white"/>
</clipPath>
</defs>
</svg>
