<svg id="areamap" version="1.1" xmlns="http://www.w3.org/2000/svg" xmlns:xlink="http://www.w3.org/1999/xlink" width="100%" height="100%" viewBox="80 5 400 160">
	<style>
		/* テキストオブジェクト */
		text {
			fill: #444;
			font-size: 7px;
			font-family: "ヒラギノ角ゴ Pro W3", "Hiragino Kaku Gothic Pro", "メイリオ", Meiryo, Osaka, "ＭＳ Ｐゴシック", "MS PGothic", sans-serif;
		}
			text.left {
				text-anchor: start;
			}
			text.center {
				text-anchor: middle;
			}
			text.right {
				text-anchor: end;
			}
			text.top {
				dominant-baseline: text-before-edge;
			}
			text.middle {
				dominant-baseline: central;
			}
			text.bottom {
				/* dominant-baseline: text-after-edge;は
				iPhoneで位置がずれるため「dy="-0.25em"」で調節しています。 */
			}

		/* 方面を表す線オブジェクト */
		g.homen path {
			fill: none;
			stroke: #668;
			stroke-dasharray: 2px;
			stroke-width: 3px;
			marker-end: url(#homen-arrow);
		}
			g.homen text {
				fill: #668;
				font-size: 6.5px;
				font-style: italic;
			}
		marker.homen-arrow polygon {
			fill: #668;
		}

		/* 区間を表す線オブジェクト */
		g.kukan path {
			stroke: #91ccff;
			stroke-width: 4px;
			fill: none;
			stroke-linejoin: round;
		}
			/* サービス未提供を表す線オブジェクト */
			g.kukan path[data-nonService="1"] {
				stroke: #ccc;
			}
			/* 路線選択区間 */
			g.kukan path[data-status="2"] {
				stroke: #04c;
				stroke-width: 10px;
			}

		/* 駅を表す点オブジェクト */
		g.station circle {
			fill: #fff;
			stroke: #aaa;
			stroke-width: 1px;
			r: 5px;
		}
			g.station a:hover circle {
				fill: #ffc;
			}
		g.station g.major text {
			font-size: 10px;
			font-weight: bold;
		}

		/* 北海道の枠線 */
		g.hokkaido .sea {
			fill: #bff;
			stroke: none;
		}
		g.hokkaido .land {
			fill: #fec;
			stroke: #aaa;
			stroke-width: 0.5px;
		}
		g.hokkaido .area {
			fill: #5b3;
			stroke: #4a2;
			stroke-width: 4px;
		}
	</style>

	<!-- 北海道テンプレート -->
	<symbol id="hokkaido" viewBox="0 0 500 520">
		<g class="hokkaido">
			<rect class="sea" x="0" y="0" width="500" height="520"/>
			<path class="land" d="M170 5 L47 220 L47 290 L3 345 L3 465 L130 465 L130 443 L200 443 L270 480 L340 410 L497 410 L497 360 L470 330 L470 270 L497 240 L497 185 L430 185 L245 5 Z"/>
			<path class="land" d="M3 520 L3 480 L130 480 L130 520"/>
			<path class="area" d="M245 280 L320 280 L414.5 170 L245 5 L170 5 L75.5 170 L245 170 Z"/>
		</g>
	</symbol>

	<!-- 方面を表す線オブジェクトの矢印マーカー -->
	<marker id="homen-arrow" class="homen-arrow" viewBox="0 0 2 2" refX="1" refY="1" markerUnits="strokeWidth" markerWidth="2" orient="auto">
		<polygon points="0,0 0,2 2,1"/>
	</marker>

	<!-- 方面を表す線 -->
	<g class="homen">
		<!-- 旭川・深川：岩見沢・札幌方面 -->
		<path d="M280 100 L280 143"/>
		<text class="right top" x="320" y="148">［函館線］岩見沢・札幌方面</text>
	</g>

	<!-- 区間を表す線 -->
	<g id="kukan" class="kukan">
		<!-- 宗谷線：旭川～新旭川 -->
		<path data-key="17" d="M280 100 L280 80"/>
		<!-- 宗谷線：新旭川～永山 -->
		<path data-key="18" d="M280 80 L280 60"/>
		<!-- 宗谷線：永山～名寄 -->
		<path data-key="19" d="M280 60 L280 20"/>
		<!-- 石北線：新旭川～上川 -->
		<path data-key="51" d="M280 80 L315 80"/>
	</g>

	<!-- 駅を表す点オブジェクト -->
	<g id="station" class="station">
		<!-- 深川 -->
		<g data-key="114">
			<circle cx="280" cy="125"/>
			<text class="right middle" x="273" y="125">深川</text>
		</g>
		<!-- 旭川 -->
		<g data-key="118" class="major">
			<circle cx="280" cy="100"/>
			<text class="right middle" x="273" y="100">旭川</text>
		</g>
		<!-- 新旭川 -->
		<g data-key="131">
			<circle cx="280" cy="80"/>
			<text class="right middle" x="273" y="80">新旭川</text>
		</g>
		<!-- 永山 -->
		<g data-key="132">
			<circle cx="280" cy="60"/>
			<text class="right middle" x="273" y="60">永山</text>
		</g>
		<!-- 名寄 -->
		<g data-key="149">
			<circle cx="280" cy="20"/>
			<text class="right middle" x="273" y="20">名寄</text>
		</g>
		<!-- 上川 -->
		<g data-key="469">
			<circle cx="315" cy="80"/>
			<text class="center bottom" x="315" y="73" dy="-0.25em">上川</text>
		</g>
	</g>

	<!-- 北海道の枠線 -->
	<use xlink:href="#hokkaido" x="81" y="6" width="75" height="78"/>

</svg>
