<svg id="areamap" version="1.1" xmlns="http://www.w3.org/2000/svg" xmlns:xlink="http://www.w3.org/1999/xlink" width="100%" height="100%" viewBox="100 150 400 215">
	<style>
		/* テキストオブジェクト */
		text {
			fill: #444;
			font-size: 7px;
			font-family: "ヒラギノ角ゴ Pro W3", "Hiragino Kaku Gothic Pro", "メイリオ", Meiryo, Osaka, "ＭＳ Ｐゴシック", "MS PGothic", sans-serif;
		}
			text.left {
				text-anchor: start;
			}
			text.center {
				text-anchor: middle;
			}
			text.right {
				text-anchor: end;
			}
			text.top {
				dominant-baseline: text-before-edge;
			}
			text.middle {
				dominant-baseline: central;
			}
			text.bottom {
				/* dominant-baseline: text-after-edge;は
				iPhoneで位置がずれるため「dy="-0.25em"」で調節しています。 */
			}

		/* 方面を表す線オブジェクト */
		g.homen path {
			fill: none;
			stroke: #668;
			stroke-dasharray: 2px;
			stroke-width: 3px;
			marker-end: url(#homen-arrow);
		}
			g.homen text {
				fill: #668;
				font-size: 6.5px;
				font-style: italic;
			}
		marker.homen-arrow polygon {
			fill: #668;
		}

		/* 区間を表す線オブジェクト */
		g.kukan path {
			stroke: #91ccff;
			stroke-width: 4px;
			fill: none;
			stroke-linejoin: round;
		}
			/* サービス未提供を表す線オブジェクト */
			g.kukan path[data-nonService="1"] {
				stroke: #ccc;
			}
			/* 路線選択区間 */
			g.kukan path[data-status="2"] {
				stroke: #04c;
				stroke-width: 10px;
			}

		/* 駅を表す点オブジェクト */
		g.station circle {
			fill: #fff;
			stroke: #aaa;
			stroke-width: 1px;
			r: 5px;
		}
			g.station a:hover circle {
				fill: #ffc;
			}
		g.station g.major text {
			font-size: 10px;
			font-weight: bold;
		}

		/* 北海道の枠線 */
		g.hokkaido .sea {
			fill: #bff;
			stroke: none;
		}
		g.hokkaido .land {
			fill: #fec;
			stroke: #aaa;
			stroke-width: 0.5px;
		}
		g.hokkaido .area {
			fill: #5b3;
			stroke: #4a2;
			stroke-width: 4px;
		}
	</style>

	<!-- 北海道テンプレート -->
	<symbol id="hokkaido" viewBox="0 0 500 520">
		<g class="hokkaido">
			<rect class="sea" x="0" y="0" width="500" height="520"/>
			<path class="land" d="M170 5 L47 220 L47 290 L3 345 L3 465 L130 465 L130 443 L200 443 L270 480 L340 410 L497 410 L497 360 L470 330 L470 270 L497 240 L497 185 L430 185 L245 5 Z"/>
			<path class="land" d="M3 520 L3 480 L130 480 L130 520"/>
			<path class="area" d="M414.5 170 L320 280 L245 280 L200 320 L200 443 L270 480 L340 410 L497 410 L497 360 L470 330 L470 270 L497 240 L497 185 L430 185 Z"/>
		</g>
	</symbol>

	<!-- 方面を表す線オブジェクトの矢印マーカー -->
	<marker id="homen-arrow" class="homen-arrow" viewBox="0 0 2 2" refX="1" refY="1" markerUnits="strokeWidth" markerWidth="2" orient="auto">
		<polygon points="0,0 0,2 2,1"/>
	</marker>

	<!-- 方面を表す線 -->
	<g class="homen">
		<!-- 滝川：岩見沢・札幌方面 -->
		<path d="M260 200 L260 220"/>
		<text class="center top" x="260" y="225">［函館線］</text>
		<text class="center top" x="260" y="233">岩見沢・札幌方面</text>
		<!-- 滝川：旭川方面 -->
		<path d="M260 200 L260 180"/>
		<text class="center bottom" x="260" y="169" dy="-0.25em">［函館線］</text>
		<text class="center bottom" x="260" y="177" dy="-0.25em">旭川方面</text>
		<!-- 追分：岩見沢方面 -->
		<path d="M260 290 L260 270"/>
		<text class="center bottom" x="260" y="259" dy="-0.25em">［室蘭線］</text>
		<text class="center bottom" x="260" y="267" dy="-0.25em">岩見沢方面</text>
		<!-- 追分・南千歳：苫小牧・東室蘭方面 -->
		<path d="M260 290 L227 310"/>
		<path d="M210 290 L210 310"/>
		<text class="center top" x="220" y="315">［千歳線・室蘭線］</text>
		<text class="center top" x="220" y="323">苫小牧・東室蘭方面</text>
		<!-- 南千歳：札幌方面 -->
		<path d="M210 290 L210 270"/>
		<text class="center bottom" x="210" y="259" dy="-0.25em">［千歳線］</text>
		<text class="center bottom" x="210" y="267" dy="-0.25em">札幌方面</text>
		<!-- 南千歳：新千歳空港方面 -->
		<path d="M210 290 L190 290"/>
		<text class="center middle" x="160" y="286">［千歳線］</text>
		<text class="center middle" x="160" y="294">新千歳空港方面</text>
	</g>

	<!-- 区間を表す線 -->
	<g id="kukan" class="kukan">
		<!-- 石勝線：南千歳～追分 -->
		<path data-key="35" d="M210 290 L260 290"/>
		<!-- 石勝線：追分～新得 -->
		<path data-key="36" d="M260 290 L310 320"/>
		<!-- 根室線：滝川～富良野 -->
		<path data-key="37" d="M260 200 L310 230"/>
		<!-- 根室線：富良野～東鹿越 -->
		<path data-key="38" d="M310 230 L310 270"/>
		<!-- 根室線：東鹿越～新得 -->
		<path data-key="39" d="M310 270 L310 320" data-nonService="1"/>
		<!-- 根室線：新得～帯広 -->
		<path data-key="40" d="M310 320 L345 340"/>
		<!-- 根室線：帯広～池田 -->
		<path data-key="41" d="M345 340 L380 340"/>
		<!-- 根室線：池田～釧路 -->
		<path data-key="42" d="M380 340 L420 340"/>
	</g>

	<!-- 駅を表す点オブジェクト -->
	<g id="station" class="station">
		<!-- 滝川 -->
		<g data-key="111">
			<circle cx="260" cy="200"/>
			<text class="right middle" x="253" y="200">滝川</text>
		</g>
		<!-- 追分 -->
		<g data-key="220">
			<circle cx="260" cy="290"/>
			<text class="left middle" x="267" y="283">追分</text>
		</g>
		<!-- 南千歳 -->
		<g data-key="245">
			<circle cx="210" cy="290"/>
			<text class="left bottom" x="217" y="283" dy="-0.25em">南千歳</text>
		</g>
		<!-- 東鹿越 -->
		<g data-key="318">
			<circle cx="310" cy="270"/>
			<text class="left middle" x="317" y="270">東鹿越</text>
		</g>
		<!-- 新得 -->
		<g data-key="325">
			<circle cx="310" cy="320"/>
			<text class="left middle" x="317" y="313">新得</text>
		</g>
		<!-- 帯広 -->
		<g data-key="335" class="major">
			<circle cx="345" cy="340"/>
			<text class="center top" x="345" y="347">帯広</text>
		</g>
		<!-- 池田 -->
		<g data-key="340">
			<circle cx="380" cy="340"/>
			<text class="center top" x="380" y="347">池田</text>
		</g>
		<!-- 釧路 -->
		<g data-key="360" class="major">
			<circle cx="420" cy="340"/>
			<text class="center bottom" x="420" y="333" dy="-0.25em">釧路</text>
		</g>
		<!-- 富良野 -->
		<g data-key="500">
			<circle cx="310" cy="230"/>
			<text class="left middle" x="317" y="230">富良野</text>
		</g>
	</g>

	<!-- 北海道の枠線 -->
	<use xlink:href="#hokkaido" x="101" y="151" width="75" height="78"/>

</svg>
