<svg id="areamap" version="1.1" xmlns="http://www.w3.org/2000/svg" xmlns:xlink="http://www.w3.org/1999/xlink" width="100%" height="100%" viewBox="0 0 400 160">
	<style>
		/* テキストオブジェクト */
		text {
			fill: #444;
			font-size: 7px;
			font-family: "ヒラギノ角ゴ Pro W3", "Hiragino Kaku Gothic Pro", "メイリオ", Meiryo, Osaka, "ＭＳ Ｐゴシック", "MS PGothic", sans-serif;
		}
			text.left {
				text-anchor: start;
			}
			text.center {
				text-anchor: middle;
			}
			text.right {
				text-anchor: end;
			}
			text.top {
				dominant-baseline: text-before-edge;
			}
			text.middle {
				dominant-baseline: central;
			}
			text.bottom {
				/* dominant-baseline: text-after-edge;は
				iPhoneで位置がずれるため「dy="-0.25em"」で調節しています。 */
			}

		/* 方面を表す線オブジェクト */
		g.homen path {
			fill: none;
			stroke: #668;
			stroke-dasharray: 2px;
			stroke-width: 3px;
			marker-end: url(#homen-arrow);
		}
			g.homen text {
				fill: #668;
				font-size: 6.5px;
				font-style: italic;
			}
		marker.homen-arrow polygon {
			fill: #668;
		}

		/* 区間を表す線オブジェクト */
		g.kukan path {
			stroke: #91ccff;
			stroke-width: 4px;
			fill: none;
			stroke-linejoin: round;
		}
			/* サービス未提供を表す線オブジェクト */
			g.kukan path[data-nonService="1"] {
				stroke: #ccc;
			}
			/* 路線選択区間 */
			g.kukan path[data-status="2"] {
				stroke: #04c;
				stroke-width: 10px;
			}

		/* 駅を表す点オブジェクト */
		g.station circle {
			fill: #fff;
			stroke: #aaa;
			stroke-width: 1px;
			r: 5px;
		}
			g.station a:hover circle {
				fill: #ffc;
			}
		g.station g.major text {
			font-size: 10px;
			font-weight: bold;
		}

		/* 北海道の枠線 */
		g.hokkaido .sea {
			fill: #bff;
			stroke: none;
		}
		g.hokkaido .land {
			fill: #fec;
			stroke: #aaa;
			stroke-width: 0.5px;
		}
		g.hokkaido .area {
			fill: #5b3;
			stroke: #4a2;
			stroke-width: 4px;
		}
	</style>

	<!-- 北海道テンプレート -->
	<symbol id="hokkaido" viewBox="0 0 500 520">
		<g class="hokkaido">
			<rect class="sea" x="0" y="0" width="500" height="520"/>
			<path class="land" d="M170 5 L47 220 L47 290 L3 345 L3 465 L130 465 L130 443 L200 443 L270 480 L340 410 L497 410 L497 360 L470 330 L470 270 L497 240 L497 185 L430 185 L245 5 Z"/>
			<path class="land" d="M3 520 L3 480 L130 480 L130 520"/>
			<path class="area" d="M3 465 L3 425 L130 425 L130 465 Z"/>
			<path class="area" d="M3 520 L3 480 L130 480 L130 520"/>
		</g>
	</symbol>

	<!-- 方面を表す線オブジェクトの矢印マーカー -->
	<marker id="homen-arrow" class="homen-arrow" viewBox="0 0 2 2" refX="1" refY="1" markerUnits="strokeWidth" markerWidth="2" orient="auto">
		<polygon points="0,0 0,2 2,1"/>
	</marker>

	<!-- 方面を表す線 -->
	<g class="homen">
		<!-- 新函館北斗：長万部・札幌方面 -->
		<path d="M200 23 L170 23"/>
		<text class="right middle" x="165" y="23">［函館線］長万部・札幌方面</text>
		<!-- 新函館北斗：函館方面 -->
		<path d="M200 23 L230 23"/>
		<text class="left middle" x="235" y="23">［函館線］函館方面</text>
		<!-- 新青森：仙台・東京方面 -->
		<path d="M200 115 L200 135"/>
		<text class="center top" x="200" y="140">［東北新幹線］仙台・東京方面</text>
	</g>

	<!-- 区間を表す線 -->
	<g id="kukan" class="kukan">
		<!-- 北海道新幹線：新函館北斗～新青森 -->
		<path data-key="57" d="M200 25 200 115"/>
	</g>

	<!-- 駅を表す点オブジェクト -->
	<g id="station" class="station">
		<!-- 新函館北斗 -->
		<g data-key="34" class="major">
			<circle cx="200" cy="23"/>
			<text class="center bottom" x="200" y="18" dy="-0.25em">新函館北斗</text>
		</g>
		<!-- 木古内 -->
		<g data-key="018">
			<circle cx="200" cy="55"/>
			<text class="left middle" x="207" y="55">木古内</text>
		</g>
		<!-- 奥津軽いまべつ -->
		<g data-key="002">
			<circle cx="200" cy="85"/>
			<text class="left middle" x="207" y="85">奥津軽いまべつ</text>
		</g>
		<!-- 新青森 -->
		<g data-key="909">
			<circle cx="200" cy="115"/>
			<text class="left middle" x="207" y="115">新青森</text>
		</g>
	</g>

	<!-- 北海道の枠線 -->
	<use xlink:href="#hokkaido" x="1" y="1" width="75" height="78"/>

</svg>
