<svg version="1.1" xmlns="http://www.w3.org/2000/svg" width="100%" height="100%" viewBox="0 0 100 100">
<defs>
	<path id="trainBody" d="M 23 16 a 20 7 0 1 1 54 0 L77, 59 L74, 59 L74, 66 L73, 67 L60, 67 L60, 71 L58, 71 L58, 67 L42, 67 L42, 71 L40, 71 L40, 67 L28, 67 L27, 67 L26, 66 L26, 59 L23, 59 L23, 21 L23, 16"/>
	<clipPath id="trainBodyClip"><use href="#trainBody"/></clipPath>
	<clipPath id="leftHalfClip"><rect x="0" y="0" width="50" height="100"/></clipPath>
	<clipPath id="rightHalfClip"><rect x="50" y="0" width="50" height="100"/></clipPath>
</defs>
<g clip-path="url(#trainBodyClip)">
	<g clip-path="url(#leftHalfClip)">
		<rect x="0" y="0" width="100" height="48" fill="#35BEC3"/>
		<rect x="0" y="48" width="100" height="5" fill="#E0448B"/>
		<rect x="0" y="53" width="100" height="47" fill="#E8E8E8"/>
	</g>
	<g clip-path="url(#rightHalfClip)">
		<rect x="0" y="0" width="102.0153" height="16.742701" fill="#e94a7d"/>
		<rect x="-0.26286498" y="16.479836" width="102.45341" height="51.560493" fill="#e8e8e8"/>
		<rect x="-0.38678071" y="46.21373" width="100.43811" height="5.5827556" fill="#888a87"/>
		<rect x="0" y="66" width="100" height="34" fill="#E8E8E8"/>
	</g>
</g>
<use href="#trainBody" fill="none" stroke="#444444" stroke-width="2"/>
</svg>
